<mxfile host="65bd71144e">
    <diagram name="Page-1" id="OnYu8E4_LFuYqcuafDaF">
        <mxGraphModel dx="956" dy="552" grid="1" gridSize="10" guides="1" tooltips="1" connect="1" arrows="1" fold="1" page="1" pageScale="1" pageWidth="850" pageHeight="1100" math="0" shadow="0">
            <root>
                <mxCell id="0"/>
                <mxCell id="1" parent="0"/>
                <mxCell id="50" value="r-type" style="swimlane;whiteSpace=wrap;html=1;gradientColor=none;labelBackgroundColor=none;" vertex="1" parent="1">
                    <mxGeometry x="60" y="150" width="700" height="440" as="geometry"/>
                </mxCell>
                <mxCell id="48" value="Client" style="swimlane;whiteSpace=wrap;html=1;gradientColor=none;labelBackgroundColor=none;" vertex="1" parent="50">
                    <mxGeometry x="40" y="60" width="200" height="200" as="geometry"/>
                </mxCell>
                <mxCell id="54" value="connect server" style="text;strokeColor=none;fillColor=none;align=left;verticalAlign=middle;spacingLeft=4;spacingRight=4;overflow=hidden;points=[[0,0.5],[1,0.5]];portConstraint=eastwest;rotatable=0;whiteSpace=wrap;html=1;labelBackgroundColor=none;" vertex="1" parent="48">
                    <mxGeometry x="30" y="30" width="140" height="30" as="geometry"/>
                </mxCell>
                <mxCell id="56" value="draw sprite" style="text;strokeColor=none;fillColor=none;align=left;verticalAlign=middle;spacingLeft=4;spacingRight=4;overflow=hidden;points=[[0,0.5],[1,0.5]];portConstraint=eastwest;rotatable=0;whiteSpace=wrap;html=1;labelBackgroundColor=none;" vertex="1" parent="48">
                    <mxGeometry x="30" y="70" width="140" height="30" as="geometry"/>
                </mxCell>
                <mxCell id="57" value="client input" style="text;strokeColor=none;fillColor=none;align=left;verticalAlign=middle;spacingLeft=4;spacingRight=4;overflow=hidden;points=[[0,0.5],[1,0.5]];portConstraint=eastwest;rotatable=0;whiteSpace=wrap;html=1;labelBackgroundColor=none;" vertex="1" parent="48">
                    <mxGeometry x="30" y="110" width="140" height="30" as="geometry"/>
                </mxCell>
                <mxCell id="49" value="Server" style="swimlane;whiteSpace=wrap;html=1;gradientColor=none;labelBackgroundColor=none;" vertex="1" parent="50">
                    <mxGeometry x="460" y="60" width="200" height="200" as="geometry"/>
                </mxCell>
                <mxCell id="58" value="accept client connection" style="text;strokeColor=none;fillColor=none;align=left;verticalAlign=middle;spacingLeft=4;spacingRight=4;overflow=hidden;points=[[0,0.5],[1,0.5]];portConstraint=eastwest;rotatable=0;whiteSpace=wrap;html=1;labelBackgroundColor=none;" vertex="1" parent="49">
                    <mxGeometry x="30" y="40" width="140" height="30" as="geometry"/>
                </mxCell>
                <mxCell id="59" value="run game" style="text;strokeColor=none;fillColor=none;align=left;verticalAlign=middle;spacingLeft=4;spacingRight=4;overflow=hidden;points=[[0,0.5],[1,0.5]];portConstraint=eastwest;rotatable=0;whiteSpace=wrap;html=1;labelBackgroundColor=none;" vertex="1" parent="49">
                    <mxGeometry x="30" y="75" width="140" height="30" as="geometry"/>
                </mxCell>
                <mxCell id="60" value="send info to all client" style="text;strokeColor=none;fillColor=none;align=left;verticalAlign=middle;spacingLeft=4;spacingRight=4;overflow=hidden;points=[[0,0.5],[1,0.5]];portConstraint=eastwest;rotatable=0;whiteSpace=wrap;html=1;labelBackgroundColor=none;" vertex="1" parent="49">
                    <mxGeometry x="30" y="110" width="140" height="30" as="geometry"/>
                </mxCell>
                <mxCell id="51" value="Asio" style="rounded=0;whiteSpace=wrap;html=1;labelBackgroundColor=none;gradientColor=none;" vertex="1" parent="50">
                    <mxGeometry x="280" y="190" width="120" height="60" as="geometry"/>
                </mxCell>
            </root>
        </mxGraphModel>
    </diagram>
</mxfile>